<svg width="70" height="69" viewBox="0 0 70 69" fill="none" xmlns="http://www.w3.org/2000/svg">
<g id="flat-color-icons:google">
<path id="Vector" d="M63.5993 28.2429H61.25V28.1219H35V39.7886H51.4835C49.0787 46.58 42.6169 51.4552 35 51.4552C25.3356 51.4552 17.5 43.6196 17.5 33.9552C17.5 24.2909 25.3356 16.4552 35 16.4552C39.461 16.4552 43.5196 18.1382 46.6098 20.8871L54.8596 12.6373C49.6504 7.78253 42.6825 4.78857 35 4.78857C18.8927 4.78857 5.83331 17.8479 5.83331 33.9552C5.83331 50.0625 18.8927 63.1219 35 63.1219C51.1073 63.1219 64.1666 50.0625 64.1666 33.9552C64.1666 31.9996 63.9654 30.0907 63.5993 28.2429Z" fill="#FFC107"/>
<path id="Vector_2" d="M9.19623 20.3796L18.7789 27.4073C21.3719 20.9877 27.6514 16.4552 35 16.4552C39.461 16.4552 43.5196 18.1382 46.6098 20.8871L54.8596 12.6373C49.6504 7.78253 42.6825 4.78857 35 4.78857C23.7971 4.78857 14.0816 11.1134 9.19623 20.3796Z" fill="#FF3D00"/>
<path id="Vector_3" d="M35 63.122C42.5337 63.122 49.3792 60.2389 54.5548 55.5503L45.5277 47.9116C42.5015 50.2144 38.8027 51.4594 35 51.4553C27.4137 51.4553 20.9723 46.6181 18.5456 39.8674L9.03436 47.1956C13.8614 56.6412 23.6644 63.122 35 63.122Z" fill="#4CAF50"/>
<path id="Vector_4" d="M63.5994 28.2431H61.25V28.1221H35V39.7887H51.4835C50.3332 43.021 48.2611 45.8455 45.5233 47.9131L45.5277 47.9102L54.5548 55.5489C53.916 56.1294 64.1667 48.5387 64.1667 33.9554C64.1667 31.9998 63.9654 30.0908 63.5994 28.2431Z" fill="#1976D2"/>
</g>
</svg>
