<svg width="70" height="70" viewBox="0 0 70 70" fill="none" xmlns="http://www.w3.org/2000/svg">
<g id="mdi:instagram">
<path id="Vector" d="M22.75 5.83325H47.25C56.5833 5.83325 64.1667 13.4166 64.1667 22.7499V47.2499C64.1667 51.7365 62.3844 56.0393 59.2119 59.2118C56.0394 62.3843 51.7366 64.1666 47.25 64.1666H22.75C13.4167 64.1666 5.83334 56.5833 5.83334 47.2499V22.7499C5.83334 18.2633 7.61563 13.9605 10.7881 10.788C13.9606 7.61554 18.2634 5.83325 22.75 5.83325ZM22.1667 11.6666C19.3819 11.6666 16.7112 12.7728 14.7421 14.742C12.7729 16.7111 11.6667 19.3818 11.6667 22.1666V47.8332C11.6667 53.6374 16.3625 58.3332 22.1667 58.3332H47.8333C50.6181 58.3332 53.2888 57.227 55.258 55.2579C57.2271 53.2887 58.3333 50.618 58.3333 47.8332V22.1666C58.3333 16.3624 53.6375 11.6666 47.8333 11.6666H22.1667ZM50.3125 16.0416C51.2794 16.0416 52.2068 16.4257 52.8905 17.1094C53.5742 17.7932 53.9583 18.7205 53.9583 19.6874C53.9583 20.6544 53.5742 21.5817 52.8905 22.2654C52.2068 22.9491 51.2794 23.3333 50.3125 23.3333C49.3456 23.3333 48.4182 22.9491 47.7345 22.2654C47.0508 21.5817 46.6667 20.6544 46.6667 19.6874C46.6667 18.7205 47.0508 17.7932 47.7345 17.1094C48.4182 16.4257 49.3456 16.0416 50.3125 16.0416ZM35 20.4166C38.8677 20.4166 42.5771 21.953 45.312 24.6879C48.0469 27.4228 49.5833 31.1322 49.5833 34.9999C49.5833 38.8677 48.0469 42.577 45.312 45.3119C42.5771 48.0468 38.8677 49.5832 35 49.5832C31.1323 49.5832 27.4229 48.0468 24.688 45.3119C21.9531 42.577 20.4167 38.8677 20.4167 34.9999C20.4167 31.1322 21.9531 27.4228 24.688 24.6879C27.4229 21.953 31.1323 20.4166 35 20.4166ZM35 26.2499C32.6794 26.2499 30.4538 27.1718 28.8128 28.8127C27.1719 30.4537 26.25 32.6793 26.25 34.9999C26.25 37.3206 27.1719 39.5462 28.8128 41.1871C30.4538 42.828 32.6794 43.7499 35 43.7499C37.3207 43.7499 39.5462 42.828 41.1872 41.1871C42.8281 39.5462 43.75 37.3206 43.75 34.9999C43.75 32.6793 42.8281 30.4537 41.1872 28.8127C39.5462 27.1718 37.3207 26.2499 35 26.2499Z" fill="white"/>
</g>
</svg>
