<svg width="216" height="45" viewBox="0 0 216 45" fill="none" xmlns="http://www.w3.org/2000/svg">
<g id="Logo" clip-path="url(#clip0_22_354)">
<g id="Clip path group">
<mask id="mask0_22_354" style="mask-type:luminance" maskUnits="userSpaceOnUse" x="0" y="0" width="216" height="45">
<g id="clippath">
<path id="Vector" d="M92.9092 6.67343H101.988C107.239 6.67343 109.895 8.9728 109.895 13.0523C109.895 17.1318 107.432 19.5499 101.528 19.5499H92.8944V6.67343H92.9092ZM85.7144 0.70991V43.6265H92.9092V25.4986H100.475C107.818 25.4986 109.301 27.9611 109.301 33.4351V34.2213C109.301 38.4937 109.331 41.7721 110.103 43.6265H117.104C116.452 41.7276 116.511 38.197 116.511 35.2746V33.3016C116.511 25.7508 113.396 23.3179 110.503 22.4426C114.167 21.241 117.327 17.9774 117.327 12.3254C117.327 5.66468 112.476 0.70991 103.412 0.70991H85.6996H85.7144ZM152.455 6.67343H161.312C165.851 6.67343 169.248 8.85412 169.248 13.7199C169.248 18.5856 166.266 20.7515 161.104 20.7515H152.455V6.67343ZM145.127 0.70991V43.6265H152.47V26.715H161.801C170.227 26.715 176.71 22.3536 176.71 13.5567C176.71 5.57567 170.776 0.70991 162.083 0.70991H145.127ZM180.968 0.70991V6.82178H194.467V43.6265H201.795V6.82178H215.28V0.70991H180.968ZM125.887 7.8157L128.408 12.2809L121.822 12.2216L122.964 14.2243C124.893 17.6511 126.198 21.3894 126.806 25.276L129.877 44.9319L133.141 25.4392C133.808 21.4932 135.188 17.7104 137.205 14.2688L138.318 12.3699L131.524 12.3106L134.12 7.88987L138.303 0.784083L130.055 0.70991L121.807 0.635737L125.872 7.8157H125.887ZM1.60214 12.1029C1.60214 18.0368 4.83609 21.8492 15.6505 24.4305C23.6909 26.3441 25.7826 28.3468 25.7826 32.2928C25.7826 35.9421 23.3794 38.5382 17.4603 38.5382C11.5413 38.5382 8.47057 36.1647 7.40247 31.3879H0C0.949416 38.5382 6.09703 44.1902 16.9263 44.1902C27.7556 44.1902 33.2889 38.7904 33.2889 31.4472C33.2889 25.6914 30.8708 20.9888 18.5136 18.0219C11.2595 16.3011 9.10846 14.877 9.10846 11.3167C9.10846 7.75636 11.749 5.70918 16.3181 5.70918C22.2519 5.70918 24.2249 8.72061 24.848 12.0139H32.2505C31.6571 6.09488 27.2957 0.0868561 16.5554 0.0868561C6.70525 0.0868561 1.60214 5.23447 1.60214 12.1029ZM39.5936 22.3388C39.5936 34.5032 46.0467 44.205 59.2346 44.205C67.8684 44.205 73.283 40.1848 75.8494 34.3252C76.3093 33.2719 76.6802 32.1593 76.962 30.9874H69.6189C69.3073 31.8478 68.9216 32.723 68.4173 33.5686C66.9041 36.1053 64.3229 38.3157 59.561 38.3157C50.3784 38.3157 47.2038 29.9935 47.2038 22.1014C47.2038 13.8089 50.6602 5.9762 59.3088 5.9762C63.5515 5.9762 66.1772 7.50417 67.8387 9.71453C68.6546 10.8271 69.248 12.1029 69.6634 13.4529H76.9768C76.6653 11.554 76.0571 9.71453 75.1077 8.03821C72.5116 3.42465 67.453 0.0720215 59.5758 0.0720215C46.1653 0.0720215 39.6233 10.6194 39.6233 22.324" fill="white"/>
</g>
</mask>
<g mask="url(#mask0_22_354)">
<g id="Group">
<path id="Vector_2" d="M215.28 0.0849609H0V44.9152H215.28V0.0849609Z" fill="url(#paint0_linear_22_354)"/>
</g>
</g>
</g>
</g>
<defs>
<linearGradient id="paint0_linear_22_354" x1="215" y1="23" x2="-6.55675e-07" y2="23" gradientUnits="userSpaceOnUse">
<stop stop-color="#AEFFE1"/>
<stop offset="0.5" stop-color="#5B00FF"/>
<stop offset="1" stop-color="#BB96FE"/>
</linearGradient>
<clipPath id="clip0_22_354">
<rect width="215.28" height="44.8302" fill="white" transform="translate(0 0.0849609)"/>
</clipPath>
</defs>
</svg>
