<svg width="40" height="40" viewBox="0 0 40 40" fill="none" xmlns="http://www.w3.org/2000/svg">
<g id="mdi:talk">
<path id="Vector" d="M15 8.33337C16.7681 8.33337 18.4638 9.03575 19.714 10.286C20.9643 11.5362 21.6667 13.2319 21.6667 15C21.6667 16.7682 20.9643 18.4638 19.714 19.7141C18.4638 20.9643 16.7681 21.6667 15 21.6667C13.2319 21.6667 11.5362 20.9643 10.286 19.7141C9.03572 18.4638 8.33334 16.7682 8.33334 15C8.33334 13.2319 9.03572 11.5362 10.286 10.286C11.5362 9.03575 13.2319 8.33337 15 8.33337ZM15 25C19.45 25 28.3333 27.2334 28.3333 31.6667V35H1.66667V31.6667C1.66667 27.2334 10.55 25 15 25ZM27.9333 8.93337C31.3 12.6 31.3 17.6834 27.9333 21.05L25.1333 18.2334C26.5333 16.2667 26.5333 13.7167 25.1333 11.75L27.9333 8.93337ZM33.45 3.33337C40 10.0834 39.95 20.1834 33.45 26.6667L30.7333 23.95C35.35 18.65 35.35 11.0834 30.7333 6.05004L33.45 3.33337Z" fill="#FB955D"/>
</g>
</svg>
