<svg width="40" height="40" viewBox="0 0 40 40" fill="none" xmlns="http://www.w3.org/2000/svg">
<g id="mingcute:microphone-fill">
<g id="Group">
<path id="Vector" d="M23.3517 7.70662C24.6364 9.12738 25.5516 10.8426 26.0164 12.7009C26.4812 14.5592 26.4813 16.5033 26.0167 18.3616L25.8983 18.7983L31.565 26.0866C32.0421 26.6999 32.3522 27.4263 32.4652 28.195C32.5783 28.9637 32.4903 29.7486 32.21 30.4733C32.4102 30.5295 32.6208 30.538 32.825 30.4983L33.025 30.4483C33.4425 30.3151 33.8956 30.3517 34.2863 30.5501C34.677 30.7486 34.9738 31.0929 35.1125 31.5086C35.2512 31.9242 35.2206 32.3778 35.0274 32.7711C34.8341 33.1644 34.4938 33.4658 34.08 33.61C32.9964 33.9823 31.813 33.9383 30.76 33.4866C30.4321 33.3481 30.1212 33.1725 29.8333 32.9633C29.1424 33.2685 28.3857 33.3949 27.6331 33.3309C26.8804 33.2668 26.156 33.0143 25.5267 32.5966L25.2533 32.3983L17.9667 26.7316C16.0547 27.2895 14.0318 27.3487 12.0906 26.9035C10.1493 26.4583 8.35438 25.5236 6.87665 24.1883C10.4379 22.4501 13.6846 20.1305 16.4833 17.325C19.2916 14.5236 21.6129 11.2718 23.3517 7.70662ZM20.6983 5.52329C19.0899 9.03861 16.8641 12.237 14.1267 14.9666C11.3986 17.7017 8.20256 19.9257 4.68998 21.5333C3.3533 19.3017 2.8004 16.6876 3.11905 14.1059C3.43771 11.5242 4.60966 9.12301 6.44884 7.28344C8.28802 5.44388 10.689 4.27143 13.2706 3.95223C15.8522 3.63304 18.4665 4.18707 20.6983 5.52329Z" fill="#ED79B4"/>
</g>
</g>
</svg>
