<svg width="40" height="40" viewBox="0 0 40 40" fill="none" xmlns="http://www.w3.org/2000/svg">
<g id="fluent:people-audience-20-filled">
<path id="Vector" d="M24.43 10.434C24.43 9.25246 23.9606 8.11932 23.1252 7.28384C22.2897 6.44837 21.1565 5.979 19.975 5.979C18.7935 5.979 17.6603 6.44837 16.8248 7.28384C15.9894 8.11932 15.52 9.25246 15.52 10.434C15.52 11.6155 15.9894 12.7487 16.8248 13.5842C17.6603 14.4196 18.7935 14.889 19.975 14.889C21.1565 14.889 22.2897 14.4196 23.1252 13.5842C23.9606 12.7487 24.43 11.6155 24.43 10.434ZM5.03 24H11.01V18.028L11.026 17.668C11.078 17.074 11.262 16.518 11.546 16.028H6.032L5.798 16.042C5.3115 16.0993 4.86295 16.3332 4.53743 16.6993C4.21191 17.0653 4.03206 17.5381 4.032 18.028V23C4.032 23.2652 4.13736 23.5196 4.32489 23.7071C4.51243 23.8946 4.76478 24 5.03 24ZM35.982 23C35.982 23.2652 35.8766 23.5196 35.6891 23.7071C35.5016 23.8946 35.2472 24 34.982 24H28.95V18.028L28.938 17.73C28.8934 17.1305 28.7143 16.5488 28.414 16.028H33.982C34.4722 16.0281 34.9452 16.2083 35.3113 16.5342C35.6775 16.8601 35.9111 17.3091 35.968 17.796L35.982 18.028V23ZM26.936 17.796C26.8791 17.3088 26.6451 16.8595 26.2786 16.5335C25.9121 16.2075 25.4385 16.0276 24.948 16.028H15.012L14.778 16.042C14.2915 16.0993 13.8429 16.3332 13.5174 16.6993C13.1919 17.0653 13.0121 17.5381 13.012 18.028V24H26.95V18.028L26.936 17.796ZM29.952 7.236C30.9667 7.236 31.9399 7.6391 32.6574 8.35661C33.3749 9.07413 33.778 10.0473 33.778 11.062C33.778 12.0767 33.3749 13.0499 32.6574 13.7674C31.9399 14.4849 30.9667 14.888 29.952 14.888C28.937 14.888 27.9636 14.4848 27.2459 13.7671C26.5282 13.0494 26.125 12.076 26.125 11.061C26.125 10.046 26.5282 9.07261 27.2459 8.35491C27.9636 7.6372 28.937 7.236 29.952 7.236ZM13.858 11.06C13.858 10.0453 13.4549 9.07213 12.7374 8.35461C12.0199 7.6371 11.0467 7.234 10.032 7.234C9.01728 7.234 8.04412 7.6371 7.32661 8.35461C6.6091 9.07213 6.206 10.0453 6.206 11.06C6.206 12.0747 6.6091 13.0479 7.32661 13.7654C8.04412 14.4829 9.01728 14.886 10.032 14.886C11.0467 14.886 12.0199 14.4829 12.7374 13.7654C13.4549 13.0479 13.858 12.0747 13.858 11.06ZM5 26C4.73478 26 4.48043 26.1054 4.29289 26.2929C4.10536 26.4804 4 26.7348 4 27V29C4 30.3261 4.52678 31.5979 5.46447 32.5355C6.40215 33.4732 7.67392 34 9 34H31C32.3261 34 33.5979 33.4732 34.5355 32.5355C35.4732 31.5979 36 30.3261 36 29V27C36 26.7348 35.8946 26.4804 35.7071 26.2929C35.5196 26.1054 35.2652 26 35 26H5Z" fill="#FC332D"/>
</g>
</svg>
