<svg width="272" height="58" viewBox="0 0 272 58" fill="none" xmlns="http://www.w3.org/2000/svg">
<path d="M9.33675 40.2417C10.6961 46.2694 14.8995 49.2744 22.0541 49.2744C29.2087 49.2744 32.5713 45.9833 32.5713 41.3685C32.5713 36.3961 29.9241 33.8562 19.7825 31.4415C6.0993 28.1683 2.02117 23.3568 2.02117 15.8624C2.02117 7.16956 8.4782 0.676758 20.9093 0.676758C34.4852 0.676758 39.9942 8.26063 40.7454 15.7551H31.4087C30.6217 11.6054 28.1355 7.79559 20.641 7.79559C14.8637 7.79559 11.5368 10.3176 11.5368 14.8965C11.5368 19.4755 14.2555 21.1926 23.4313 23.3568C39.0283 27.0951 42.0869 33.0513 42.0869 40.3132C42.0869 49.5784 35.147 56.4111 21.4101 56.4111C7.67331 56.4111 1.1984 49.2565 0 40.2417H9.33675ZM97.2131 39.723C96.8554 41.1897 96.3903 42.6027 95.818 43.9442C92.5805 51.3492 85.7479 56.429 74.8192 56.429C58.1669 56.429 50.0107 44.1767 50.0107 28.8122C50.0107 13.4477 58.2921 0.676758 75.2485 0.676758C85.1934 0.676758 91.5789 4.89797 94.87 10.729C96.0505 12.8396 96.8375 15.1469 97.231 17.5616H88.0016C87.4829 15.8624 86.7495 14.2347 85.7121 12.8396C83.6194 10.0314 80.3104 8.09966 74.9444 8.09966C64.0158 8.09966 59.6515 17.9909 59.6515 28.4724C59.6515 38.9539 63.6581 48.9524 75.2664 48.9524C81.2941 48.9524 84.5495 46.18 86.4633 42.9604C87.1073 41.8873 87.5902 40.7783 87.9837 39.6872H97.2668L97.2131 39.723ZM117.371 32.8009V55.7135H108.285V1.46376H130.661C142.108 1.46376 148.243 7.72404 148.243 16.1486C148.243 23.3032 144.237 27.4171 139.604 28.9374C143.253 30.0285 147.188 33.105 147.188 42.6564V45.1426C147.188 48.8451 147.099 53.3167 147.939 55.6956H139.085C138.12 53.3525 138.066 49.2028 138.066 43.8011V42.8174C138.066 35.9132 136.188 32.8009 126.905 32.8009H117.335H117.371ZM117.371 25.2707H128.282C135.723 25.2707 138.853 22.4625 138.853 17.0608C138.853 11.6591 135.49 8.99398 128.854 8.99398H117.371V25.2528V25.2707ZM183.355 1.46376H204.783C215.783 1.46376 223.259 7.61672 223.259 17.7047C223.259 28.8122 215.067 34.3391 204.407 34.3391H192.62V55.7135H183.355V1.46376ZM192.62 26.791H203.548C210.077 26.791 213.851 23.8577 213.851 17.9015C213.851 11.9453 209.558 8.99398 203.817 8.99398H192.62V26.791ZM245.689 9.17285H228.643V1.46376H272V9.17285H254.972V55.6956H245.707V9.17285H245.689ZM169.475 10.5143L174.769 1.53531L164.341 1.44588L153.913 1.35644L159.047 10.4428L162.231 16.077L153.913 16.0055L155.344 18.5454C157.795 22.8739 159.44 27.5959 160.191 32.4968L164.073 57.3233L168.205 32.6936C169.045 27.7211 170.78 22.9276 173.356 18.5811L174.769 16.1844L166.183 16.1128L169.475 10.5322V10.5143Z" fill="white"/>
</svg>
